<svg width="245" height="132" viewBox="0 0 245 132" fill="none" xmlns="http://www.w3.org/2000/svg">
<g clip-path="url(#clip0_1722_16710)">
<path d="M169.848 57.837C168.241 55.628 166.364 53.6283 164.261 51.8842C162.567 50.4863 160.75 49.2448 158.832 48.1748L158.011 47.7368C157.728 47.608 157.478 47.4171 157.279 47.1783C157.08 46.9395 156.937 46.6588 156.861 46.3572C152.953 32.9442 149.03 19.5364 145.092 6.13382C145.048 5.98724 145.029 5.83549 144.981 5.6958C144.678 4.79563 144.064 4.51109 143.257 5.04568C142.439 5.57118 141.682 6.18662 141 6.88052C138.677 9.29478 137.157 12.1954 136.069 15.3391C134.615 19.5658 134.117 23.9183 134.281 28.3692C134.29 28.6291 134.284 28.8894 134.263 29.1487C134.263 29.209 134.184 29.2573 134.091 29.3849C133.948 29.2958 133.814 29.1942 133.689 29.0814C127.052 21.0856 120.412 13.0898 113.768 5.09396C112.576 3.6523 111.385 2.21064 110.181 0.782773C109.257 -0.307096 108.485 -0.251913 107.7 0.922455C106.374 2.93147 105.652 5.14742 105.35 7.5134C104.774 11.9643 105.612 16.2323 107.066 20.4039C109.157 26.3999 112.397 31.7509 116.294 36.7243C117.492 38.2574 118.787 39.7111 120.04 41.1941C120.325 41.5287 120.623 41.8512 121.037 42.3133C120.149 42.4858 119.425 42.6289 118.702 42.7513C111.325 43.9887 104.172 46.3132 97.4771 49.6492C96.8081 49.9838 96.346 50.0148 95.6719 49.5578C89.0578 45.0656 82.1747 40.9906 75.1347 37.1899C74.9456 37.0739 74.7405 36.9862 74.526 36.9295C73.8518 36.8019 73.4191 37.2882 73.6639 37.9194C73.8123 38.3414 74.0059 38.7462 74.2415 39.1265C76.783 43.2066 79.9194 46.728 83.9506 49.3906C86.0611 50.7891 88.3215 51.8238 90.8337 52.2429C91.0889 52.286 91.332 52.3774 91.6665 52.467C91.5514 52.5886 91.425 52.6989 91.2889 52.7964C87.5749 54.9244 84.711 57.9526 82.3023 61.4309C78.759 66.5439 76.4296 72.164 75.6037 78.36C75.517 78.7992 75.5129 79.2507 75.5916 79.6913C75.7916 80.5053 76.5399 80.6639 77.1227 80.0621C77.2963 79.8657 77.4569 79.6584 77.6037 79.4413C84.011 70.6982 90.4147 61.9505 96.815 53.1982C97.3875 52.4136 98.0134 52.1463 98.8944 52.236C100.001 52.3463 101.101 52.4619 102.305 52.5808C102.153 53.074 102.062 53.4258 101.941 53.7673C100.445 57.906 100.476 62.0448 101.843 66.1956C102.055 66.8322 102.324 67.4485 102.646 68.0373C102.862 68.4257 103.156 68.7655 103.508 69.0358C104.014 69.4238 104.464 69.3393 104.888 68.8633C105.05 68.6567 105.202 68.442 105.343 68.2201C107.398 65.231 109.455 62.2454 111.514 59.2632C111.728 58.9649 111.952 58.6734 112.257 58.2647C112.385 58.6096 112.481 58.8303 112.549 59.0683C113.254 61.5168 114.399 63.8162 115.928 65.8541C116.999 67.2889 118.416 68.3236 120.008 69.1134C120.908 69.5566 121.839 69.9532 122.766 70.3291C123.115 70.4626 123.482 70.5428 123.854 70.5671C124.603 70.6327 124.889 70.3843 124.889 69.6118C124.889 68.7116 124.835 67.8183 124.785 66.9181C124.604 63.8227 124.415 60.7221 124.239 57.6267C124.222 57.3352 124.239 57.0438 124.239 56.6472C124.603 56.7144 124.889 56.7455 125.163 56.8196C129.211 57.9922 133.255 59.1908 137.31 60.3393C140.896 61.3636 144.49 62.3741 148.111 63.2881C150.475 63.8779 152.876 63.9693 155.339 63.7261C159.223 63.3433 162.903 62.2483 166.546 60.9532C166.703 60.9049 166.862 60.8428 167.02 60.7807C167.755 60.5134 168.467 60.1668 169.22 59.9478C170.181 59.6667 170.526 58.7734 169.848 57.837ZM88.8095 50.0769C84.961 48.6594 81.885 46.1658 79.1987 43.1445C78.3779 42.2202 77.6348 41.2166 76.7106 40.0801C78.6693 40.694 93.5959 49.682 94.4287 50.7201C94.0511 50.7701 93.739 50.8305 93.4131 50.8495C91.842 50.911 90.2749 50.6487 88.8095 50.0786V50.0769ZM77.5624 76.4614C77.5474 76.3894 77.5433 76.3156 77.5503 76.2424C79.0711 69.3824 82.1281 63.3261 86.9801 58.2061C88.7612 56.3212 90.7854 54.7399 93.158 53.6397C93.6442 53.4086 94.1666 53.2448 94.7925 53.0016C94.227 54.2501 78.1831 76.0492 77.5624 76.4631V76.4614ZM165.403 55.2831C164.886 55.1624 164.467 54.8761 163.999 54.7123C162.904 54.3226 162.182 53.6776 162.103 52.2187C163.386 53.1982 164.491 54.1225 165.403 55.2831ZM160.808 53.6414C160.856 54.4019 160.387 54.9003 159.609 54.9175C158.88 54.9434 158.211 54.426 158.168 53.8052C158.16 53.4685 158.285 53.1421 158.516 52.8972C158.747 52.6524 159.066 52.5089 159.403 52.4981H159.427C160.163 52.4981 160.772 52.9964 160.808 53.6414ZM158.09 49.5544C159.032 50.0959 159.732 50.5891 160.023 50.9478C159.768 51.0029 159.506 51.0392 159.239 51.0823C158.788 51.1399 158.346 51.2559 157.925 51.4272C157.712 51.5265 157.482 51.5806 157.247 51.5859C157.013 51.5913 156.78 51.5478 156.563 51.4582C155.049 50.9409 153.535 50.4063 152.004 49.9441C151.123 49.682 150.411 49.3285 149.857 48.5214C149.135 47.4505 148.223 46.5021 147.249 45.3225C150.211 45.8709 155.256 47.9403 158.09 49.5544ZM136.591 19.4313C137.364 15.734 138.731 12.2747 141.041 9.2465C141.731 8.33425 142.483 7.45304 143.614 6.73566C147.48 19.9486 151.304 33.0098 155.176 46.2262C154.752 46.0916 154.539 46.0434 154.344 45.9589C151.728 44.8578 149.023 43.9826 146.259 43.3428C145.678 43.2108 145.163 42.8772 144.805 42.4013C142.666 39.8146 140.538 37.202 138.336 34.6601C137.41 33.5815 136.776 32.2837 136.495 30.8904C135.655 27.0741 135.795 23.2372 136.591 19.4313ZM111.926 27.3052C109.209 22.3922 107.178 17.2446 106.795 11.5625C106.593 8.56533 106.995 5.67166 108.362 2.95906C108.535 2.61417 108.759 2.28307 109.019 1.85885C121.988 17.455 134.893 32.9753 147.736 48.4197L147.645 48.6508C147.359 48.6077 147.067 48.5835 146.783 48.5283C145.543 48.2662 144.309 47.9748 143.062 47.7316C137.963 46.7648 132.799 46.1758 127.613 45.9692C127.252 45.9435 126.909 45.8027 126.634 45.5674C120.802 40.2267 115.768 34.2376 111.926 27.3052ZM112.047 45.8519C115.166 45.1466 118.309 44.5379 121.447 43.9188C121.83 43.8447 122.352 43.8153 122.62 44.0154C123.333 44.5613 123.971 45.1991 124.516 45.9123C118.582 45.9364 112.921 46.4296 107.322 47.554C107.303 47.4505 107.279 47.3471 107.255 47.2436C108.85 46.7763 110.424 46.2158 112.047 45.8519ZM101.608 50.7098C102.277 50.5098 102.843 50.339 103.505 50.1442C103.067 51.2168 103.05 51.2168 101.608 50.7098ZM103.924 67.4682C103.652 66.7871 103.445 66.356 103.298 65.9059C101.851 61.4429 102.15 57.0524 104.015 52.7843C104.453 51.7738 105.19 50.8874 105.828 49.9803C106.138 49.5371 106.6 49.3233 107.153 49.2336C109.214 48.9043 111.269 48.4973 113.337 48.1869C114.612 47.992 115.914 47.9317 117.202 47.8092C117.24 47.8954 117.269 47.9817 117.301 48.0593C112.88 54.4691 108.466 60.8738 103.924 67.4682ZM122.961 68.8064C120.608 67.9442 118.468 66.7457 116.99 64.6418C115.611 62.6777 114.528 60.5548 113.981 58.1837C113.531 56.2385 113.519 56.2436 114.716 54.6381C114.801 54.5667 114.893 54.5037 114.99 54.4502C117.202 54.9486 119.489 55.4849 121.787 55.9643C122.437 56.1039 122.608 56.4264 122.632 57.0403C122.742 59.4667 122.906 61.893 123.039 64.3125C123.118 65.7972 123.192 67.2803 123.265 68.7461C123.109 68.7823 123.015 68.8254 122.961 68.8064ZM151.395 62.2207C148.119 61.8758 144.976 60.8963 141.821 59.9961C137.193 58.67 132.61 57.2042 127.97 55.9332C124.018 54.8382 120.006 53.9518 115.878 52.9413C117.038 51.2444 118.145 49.6096 119.289 48.0041C119.428 47.8023 119.787 47.6868 120.054 47.6592C121.089 47.5799 122.14 47.5143 123.185 47.5074C127.071 47.4838 130.954 47.6831 134.817 48.1041C139.159 48.5606 143.464 49.3247 147.699 50.3908C147.928 50.4641 148.151 50.5593 148.362 50.6753C147.468 55.2538 148.635 59.0907 152.259 62.2776C151.821 62.2534 151.609 62.2534 151.395 62.2207ZM167.246 59.1166C166.844 59.2615 166.449 59.408 166.039 59.5408C163.235 60.5048 160.369 61.2808 157.461 61.8637C155.375 62.2845 153.728 61.5481 152.311 60.1134C150.39 58.1785 149.581 55.7901 149.654 53.1016C149.678 52.4205 149.618 51.6789 150.135 50.9857C152.256 51.6755 154.362 52.3653 156.452 53.0551C156.477 53.3396 156.501 53.4862 156.501 53.6311C156.513 55.3228 158.087 56.5437 159.649 56.4661C160.133 56.4421 160.602 56.2884 161.006 56.0212C161.844 55.4676 162.404 55.6073 163.11 56.0212C163.529 56.2643 163.972 56.4661 164.386 56.711C165.505 57.3611 166.617 58.0302 167.844 58.7596C167.653 58.889 167.454 59.0076 167.25 59.1149L167.246 59.1166Z" fill="white"/>
<path fill-rule="evenodd" clip-rule="evenodd" d="M108.135 113.755C106.462 111.62 104.755 110.589 102.338 110.589C99.493 110.589 98.4257 111.834 98.4257 113.505C98.4257 115.823 100.469 116.545 103.325 117.555L103.44 117.596L103.581 117.646C107.025 118.876 110.694 120.186 110.694 124.958C110.694 129.441 106.961 132 102.16 132C98.6395 132 95.9014 130.793 93.3065 127.625L94.2306 126.763C96.7187 129.929 99.4223 130.71 102.162 130.71C105.824 130.71 109.38 128.932 109.38 124.949C109.38 121.328 106.393 120.041 102.979 118.832C99.2102 117.48 97.117 116.556 97.117 113.497C97.117 111.15 98.7533 109.301 102.345 109.301C104.905 109.301 107.038 110.163 109.069 112.893L108.135 113.755ZM109.806 112.19C107.316 109.025 105.04 108.385 102.516 108.385C97.9998 108.385 95.9014 110.662 95.9014 113.862C95.9014 117.241 99.0309 118.592 102.017 119.624C106.178 121.003 108.205 122.148 108.205 125.385C108.205 127.768 105.929 129.795 102.343 129.795C99.6413 129.795 97.1153 128.8 95.0531 126.025L96.0876 125.064C97.7584 127.27 99.6792 128.513 102.347 128.513C105.405 128.513 106.899 127.198 106.899 125.383C106.899 122.857 104.907 122.04 101.634 120.9C98.2567 119.727 94.6307 118.375 94.6307 113.859C94.6307 109.548 97.8308 107.101 102.524 107.101C105.8 107.101 108.355 108.239 110.738 111.332L109.806 112.19ZM43.4177 120.541V131.538L44.7333 131.531V120.079L36.4122 107.559H34.7759L43.4177 120.541ZM39.2917 107.568H37.6916L45.2661 119.196L52.9113 107.568H51.3112L45.3023 117.028L39.2917 107.568ZM45.7282 120.086V131.538L47.0438 131.531V120.541L55.7563 107.566H54.12L45.7282 120.086ZM22.0822 131.538V107.568H23.3978V130.257H37.9416V131.538H22.0822ZM24.3926 129.336V107.566H25.7082V128.053H37.9502V129.336H24.3926ZM0 131.538V107.568H15.6111V108.849H1.31558V131.538H0ZM2.31046 119.658V109.772H15.6111V111.056H3.62087V118.418H14.5438V119.663L2.31046 119.658ZM3.62087 121.793V131.538H2.31046V120.541H14.5438V121.786L3.62087 121.793ZM60.7703 131.538V107.568H76.3831V108.849H62.0893V131.538H60.7703ZM63.0807 119.658V109.772H76.3831V111.056H64.3997V118.418H75.3141V119.663L63.0807 119.658ZM64.3963 121.793V131.538H63.0807V120.541H75.3141V121.786L64.3963 121.793ZM82.8522 107.568V131.538H84.1678V107.568H82.8522ZM85.1265 107.568V131.538H86.4438V107.568H85.1265ZM117.983 107.568V131.538H119.299V107.568H117.983ZM120.294 107.566V118.663H135.905V107.566H134.589V117.418H121.611V107.566H120.294ZM134.589 120.903V131.538H135.905V119.624H120.294V131.538H121.611V120.903H134.589ZM136.902 107.568V131.538H138.217V107.568H136.902ZM173.207 127.875C171.002 130.541 168.193 132 164.241 132C156.668 132 153.147 125.884 153.147 119.584C153.147 113.219 156.668 107.101 164.241 107.101C168.403 107.101 171.247 108.701 173.207 111.262L172.25 112.119C169.903 109.417 167.939 108.385 164.248 108.385C157.599 108.385 154.506 113.862 154.506 119.594C154.506 125.249 157.67 130.726 164.32 130.726C167.484 130.726 169.903 129.731 172.252 127.029L173.207 127.875ZM171.5 126.38C169.295 129.048 167.189 129.829 164.388 129.829C158.449 129.829 155.604 124.707 155.604 119.551C155.604 114.43 158.306 109.272 164.317 109.272C167.269 109.272 169.472 110.162 171.5 112.757L170.465 113.681C169.007 111.655 166.979 110.553 164.313 110.553C159.229 110.553 156.953 115.069 156.953 119.551C156.953 124.033 159.229 128.548 164.313 128.548C166.838 128.548 168.652 127.767 170.465 125.418L171.5 126.38ZM179.89 107.568V131.538H195.76V130.257H181.216V107.568H179.89ZM182.202 107.566V129.336H195.76V128.053H183.518V107.566H182.202ZM217.868 107.566H219.185V123.357C219.185 128.8 215.059 132 209.05 132C203.217 132 198.951 128.763 198.951 123.357V107.566H200.267V123.357C200.267 127.875 204 130.719 209.05 130.719C214.276 130.719 217.868 127.91 217.868 123.357V107.566ZM215.557 107.566H216.873V123.179C216.873 127.234 213.78 129.831 209.05 129.831C204.462 129.831 201.262 127.092 201.262 123.143V107.566H202.577V123.143C202.577 126.309 205.281 128.55 209.014 128.55C212.854 128.55 215.566 126.416 215.566 123.179L215.557 107.566ZM227.006 107.568V131.538L236.679 131.548C241.159 131.548 245 129.45 245 124.542C245 121.483 243.435 119.713 241.336 118.851C242.831 117.856 243.79 116.254 243.79 114.121C243.79 109.56 240.234 107.568 236.857 107.568H227.006ZM243.683 124.531C243.683 128.515 240.412 130.257 236.679 130.257H228.322V108.847H236.857C239.558 108.847 242.474 110.489 242.474 114.11C242.474 116.708 240.981 118.663 238.598 119.089C241.409 119.232 243.683 121.331 243.683 124.531ZM229.322 109.737V118.734L236.507 118.737C239.457 118.737 241.448 117.204 241.448 114.254C241.448 111.408 239.564 109.737 236.541 109.737H229.322ZM229.322 119.553V129.369H236.434C240.59 129.369 242.659 127.91 242.659 124.425C242.659 121.081 240.098 119.553 236.257 119.553H229.322ZM240.127 114.254C240.127 116.387 238.676 117.454 236.507 117.454H230.634V110.944H236.536C238.748 110.944 240.127 112.184 240.127 114.254ZM241.341 124.425C241.341 126.985 239.741 128.158 236.434 128.158H230.639V120.762H236.257C239.457 120.762 241.341 121.971 241.341 124.425Z" fill="white"/>
</g>
<defs>
<clipPath id="clip0_1722_16710">
<rect width="245" height="132" fill="white"/>
</clipPath>
</defs>
</svg>
