<svg width="361" height="195" viewBox="0 0 361 195" fill="none" xmlns="http://www.w3.org/2000/svg">
<g clip-path="url(#clip0_1585_12808)">
<path d="M250.072 85.4411C247.711 82.1778 244.953 79.2236 241.864 76.6471C239.374 74.5821 236.704 72.7481 233.886 71.1674L232.68 70.5203C232.264 70.3301 231.896 70.0481 231.603 69.6953C231.311 69.3424 231.101 68.9278 230.99 68.4823C225.247 48.6677 219.482 28.8607 213.696 9.06137C213.632 8.84483 213.604 8.62065 213.534 8.4143C213.088 7.08449 212.186 6.66415 211 7.45388C209.797 8.23019 208.685 9.13937 207.684 10.1644C204.271 13.731 202.036 18.0159 200.438 22.66C198.302 28.904 197.57 35.334 197.81 41.9091C197.823 42.2931 197.815 42.6775 197.785 43.0606C197.785 43.1497 197.668 43.2211 197.532 43.4096C197.322 43.2779 197.125 43.1279 196.941 42.9612C187.189 31.1492 177.431 19.3372 167.669 7.52522C165.918 5.39549 164.167 3.26576 162.399 1.15641C161.041 -0.45362 159.906 -0.3721 158.753 1.36276C156.805 4.33062 155.743 7.60419 155.3 11.0994C154.454 17.6745 155.685 23.9797 157.821 30.1421C160.894 38.9998 165.654 46.9048 171.38 54.2518C173.141 56.5166 175.044 58.6642 176.886 60.855C177.304 61.3492 177.742 61.8256 178.35 62.5084C177.045 62.7631 175.981 62.9746 174.92 63.1554C164.08 64.9833 153.57 68.4173 143.732 73.3455C142.749 73.8397 142.07 73.8856 141.079 73.2105C131.36 66.5742 121.246 60.5544 110.902 54.9397C110.624 54.7683 110.323 54.6387 110.008 54.555C109.017 54.3665 108.381 55.0849 108.741 56.0173C108.959 56.6408 109.243 57.2387 109.59 57.8005C113.324 63.828 117.933 69.03 123.856 72.9634C126.957 75.0294 130.279 76.5579 133.97 77.177C134.345 77.2407 134.702 77.3757 135.194 77.5082C135.025 77.6878 134.839 77.8507 134.639 77.9947C129.181 81.1384 124.973 85.6118 121.434 90.7502C116.227 98.3036 112.805 106.606 111.591 115.759C111.464 116.408 111.458 117.075 111.573 117.726C111.867 118.928 112.967 119.163 113.823 118.274C114.078 117.984 114.314 117.677 114.53 117.356C123.945 104.441 133.354 91.5178 142.759 78.5883C143.6 77.4292 144.52 77.0343 145.814 77.1668C147.441 77.3298 149.057 77.5005 150.826 77.6763C150.603 78.4049 150.468 78.9246 150.291 79.429C148.092 85.543 148.138 91.6571 150.147 97.789C150.459 98.7294 150.854 99.6399 151.327 100.51C151.645 101.083 152.076 101.585 152.594 101.985C153.336 102.558 153.998 102.433 154.621 101.73C154.86 101.425 155.083 101.108 155.29 100.78C158.31 96.3641 161.332 91.9535 164.357 87.5479C164.671 87.1072 165.001 86.6767 165.449 86.0729C165.637 86.5824 165.779 86.9085 165.877 87.2601C166.913 90.8771 168.596 94.2741 170.843 97.2846C172.417 99.4041 174.499 100.933 176.838 102.099C178.16 102.754 179.528 103.34 180.891 103.895C181.404 104.092 181.943 104.211 182.49 104.247C183.59 104.344 184.01 103.977 184.01 102.836C184.01 101.506 183.932 100.186 183.858 98.8564C183.592 94.2836 183.313 89.7031 183.055 85.1303C183.03 84.6998 183.055 84.2693 183.055 83.6834C183.589 83.7827 184.01 83.8286 184.413 83.9381C190.362 85.6704 196.303 87.4409 202.262 89.1376C207.532 90.6508 212.811 92.1437 218.132 93.4939C221.605 94.3651 225.135 94.5001 228.753 94.1409C234.461 93.5754 239.867 91.9577 245.221 90.0445C245.451 89.9732 245.684 89.8815 245.917 89.7898C246.997 89.3949 248.043 88.8828 249.15 88.5593C250.561 88.1441 251.068 86.8244 250.072 85.4411ZM130.996 73.9773C125.341 71.8832 120.821 68.1995 116.873 63.7363C115.668 62.3708 114.576 60.8881 113.218 59.2093C116.096 60.1162 138.029 73.3939 139.252 74.9275C138.698 75.0014 138.239 75.0906 137.76 75.1186C135.451 75.2095 133.149 74.8219 130.996 73.9798V73.9773ZM114.469 112.954C114.447 112.848 114.441 112.739 114.451 112.631C116.686 102.497 121.178 93.5499 128.307 85.9863C130.925 83.2019 133.899 80.8658 137.385 79.2405C138.1 78.8991 138.867 78.6571 139.787 78.2979C138.956 80.1423 115.381 112.346 114.469 112.957V112.954ZM243.541 81.6683C242.781 81.4899 242.165 81.067 241.479 80.825C239.87 80.2493 238.808 79.2965 238.692 77.1413C240.577 78.5883 242.201 79.9538 243.541 81.6683ZM236.789 79.243C236.86 80.3665 236.171 81.1027 235.028 81.1282C233.956 81.1664 232.973 80.4021 232.91 79.485C232.898 78.9876 233.082 78.5054 233.421 78.1437C233.761 77.782 234.23 77.57 234.724 77.554H234.76C235.841 77.554 236.736 78.2903 236.789 79.243ZM232.796 73.2054C234.179 74.0053 235.208 74.7339 235.636 75.2638C235.261 75.3453 234.876 75.3988 234.483 75.4625C233.821 75.5477 233.172 75.719 232.553 75.972C232.241 76.1188 231.902 76.1986 231.557 76.2065C231.212 76.2144 230.87 76.1502 230.551 76.0179C228.327 75.2536 226.102 74.4639 223.853 73.7811C222.558 73.3939 221.512 72.8717 220.698 71.6794C219.637 70.0974 218.297 68.6963 216.865 66.9538C221.218 67.7639 228.631 70.8209 232.796 73.2054ZM201.205 28.7053C202.34 23.2434 204.349 18.1331 207.744 13.6596C208.758 12.312 209.862 11.0102 211.524 9.95046C217.205 29.4696 222.824 48.7645 228.514 68.2887C227.891 68.09 227.577 68.0186 227.291 67.8938C223.448 66.2673 219.473 64.9743 215.411 64.0292C214.558 63.8341 213.801 63.3413 213.275 62.6383C210.131 58.817 207.005 54.9575 203.769 51.2025C202.409 49.6091 201.477 47.6918 201.063 45.6336C199.83 39.9959 200.035 34.3277 201.205 28.7053ZM164.963 40.3373C160.97 33.0794 157.985 25.4751 157.423 17.081C157.127 12.6534 157.717 8.37863 159.726 4.37138C159.979 3.86188 160.309 3.37276 160.691 2.74607C179.747 25.7858 198.711 48.7135 217.582 71.5291L217.448 71.8705C217.027 71.8068 216.599 71.7711 216.181 71.6896C214.359 71.3024 212.545 70.8719 210.714 70.5127C203.221 69.0845 195.633 68.2142 188.013 67.9091C187.483 67.8712 186.978 67.6631 186.574 67.3155C178.006 59.4259 170.608 50.5783 164.963 40.3373ZM165.14 67.7359C169.723 66.6939 174.342 65.7947 178.953 64.8801C179.516 64.7706 180.283 64.7273 180.676 65.0228C181.724 65.8292 182.661 66.7715 183.463 67.825C174.742 67.8607 166.425 68.5893 158.198 70.2503C158.17 70.0974 158.135 69.9446 158.099 69.7917C160.443 69.1013 162.756 68.2734 165.14 67.7359ZM149.802 74.9122C150.785 74.6167 151.616 74.3645 152.589 74.0767C151.945 75.6612 151.92 75.6612 149.802 74.9122ZM153.205 99.669C152.804 98.6628 152.5 98.0259 152.285 97.361C150.159 90.768 150.598 84.282 153.339 77.9769C153.982 76.4841 155.064 75.1746 156.002 73.8346C156.458 73.1799 157.137 72.864 157.95 72.7316C160.978 72.245 163.998 71.6438 167.035 71.1852C168.91 70.8973 170.823 70.8082 172.715 70.6273C172.771 70.7547 172.814 70.8821 172.86 70.9967C166.364 80.4658 159.878 89.9273 153.205 99.669V99.669ZM181.178 101.646C177.719 100.372 174.575 98.6016 172.404 95.4937C170.377 92.592 168.786 89.456 167.983 85.9532C167.322 83.0796 167.304 83.0872 169.062 80.7155C169.187 80.6099 169.322 80.5169 169.465 80.4378C172.715 81.174 176.075 81.9663 179.452 82.6745C180.407 82.8809 180.658 83.3573 180.694 84.2642C180.856 87.8485 181.096 91.4329 181.292 95.0071C181.408 97.2005 181.517 99.3914 181.623 101.557C181.395 101.61 181.256 101.674 181.178 101.646ZM222.958 91.9169C218.145 91.4074 213.526 89.9604 208.89 88.6306C202.089 86.6716 195.355 84.5062 188.538 82.6287C182.731 81.011 176.835 79.7016 170.77 78.2087C172.475 75.702 174.101 73.2869 175.781 70.9152C175.986 70.6171 176.513 70.4464 176.906 70.4057C178.426 70.2885 179.972 70.1917 181.507 70.1815C187.216 70.1466 192.923 70.4409 198.598 71.0629C204.979 71.7372 211.304 72.8661 217.526 74.4409C217.864 74.5492 218.191 74.69 218.502 74.8613C217.187 81.625 218.902 87.2932 224.228 92.001C223.584 91.9653 223.273 91.9653 222.958 91.9169ZM246.249 87.3314C245.659 87.5454 245.079 87.7619 244.476 87.9581C240.355 89.3821 236.144 90.5285 231.871 91.3896C228.806 92.0112 226.386 90.9234 224.304 88.8039C221.481 85.9456 220.293 82.4172 220.399 78.4456C220.435 77.4394 220.346 76.3439 221.106 75.3198C224.223 76.3389 227.317 77.3579 230.389 78.3769C230.425 78.7972 230.46 79.0137 230.46 79.2277C230.478 81.7269 232.791 83.5305 235.086 83.4159C235.798 83.3804 236.486 83.1534 237.08 82.7586C238.312 81.9408 239.135 82.1472 240.171 82.7586C240.787 83.1178 241.438 83.4159 242.046 83.7776C243.69 84.738 245.325 85.7265 247.128 86.8041C246.847 86.9952 246.555 87.1704 246.254 87.3289L246.249 87.3314Z" fill="#4360E6"/>
<path fill-rule="evenodd" clip-rule="evenodd" d="M159.392 168.047C156.934 164.893 154.426 163.369 150.874 163.369C146.694 163.369 145.126 165.209 145.126 167.677C145.126 171.101 148.128 172.169 152.324 173.66L152.493 173.72L152.701 173.795C157.762 175.611 163.152 177.546 163.152 184.595C163.152 191.219 157.667 194.999 150.613 194.999C145.44 194.999 141.416 193.216 137.603 188.536L138.961 187.263C142.617 191.94 146.59 193.094 150.616 193.094C155.997 193.094 161.221 190.467 161.221 184.583C161.221 179.233 156.833 177.332 151.817 175.547C146.278 173.549 143.203 172.184 143.203 167.665C143.203 164.197 145.607 161.466 150.884 161.466C154.647 161.466 157.781 162.74 160.765 166.773L159.392 168.047ZM161.847 165.734C158.188 161.059 154.844 160.114 151.135 160.114C144.5 160.114 141.416 163.476 141.416 168.205C141.416 173.195 146.015 175.192 150.403 176.716C156.516 178.754 159.496 180.445 159.496 185.227C159.496 188.748 156.152 191.741 150.882 191.741C146.912 191.741 143.2 190.271 140.17 186.172L141.69 184.753C144.145 188.012 146.967 189.848 150.887 189.848C155.381 189.848 157.575 187.905 157.575 185.225C157.575 181.493 154.649 180.285 149.84 178.601C144.877 176.869 139.549 174.872 139.549 168.2C139.549 161.831 144.251 158.216 151.148 158.216C155.961 158.216 159.716 159.897 163.218 164.467L161.847 165.734ZM64.2974 178.071V194.317L66.2305 194.307V177.388L54.0035 158.893H51.5992L64.2974 178.071ZM58.2346 158.906H55.8834L67.0133 176.084L78.2471 158.906H75.896L67.0665 172.882L58.2346 158.906ZM67.6923 177.399V194.317L69.6254 194.307V178.071L82.4275 158.904H80.0231L67.6923 177.399ZM32.9472 194.317V158.906H34.8803V192.424H56.2508V194.317H32.9472ZM36.3421 191.064V158.904H38.2752V189.168H56.2635V191.064H36.3421ZM0.5 194.317V158.906H23.4388V160.799H2.4331V194.317H0.5ZM3.89496 176.767V162.162H23.4388V164.06H5.82046V174.935H21.8705V176.774L3.89496 176.767ZM5.82046 179.921V194.317H3.89496V178.071H21.8705V179.91L5.82046 179.921ZM89.7951 194.317V158.906H112.736V160.799H91.7332V194.317H89.7951ZM93.19 176.767V162.162H112.736V164.06H95.1282V174.935H111.166V176.774L93.19 176.767ZM95.1231 179.921V194.317H93.19V178.071H111.166V179.91L95.1231 179.921ZM122.242 158.906V194.317H124.175V158.906H122.242ZM125.584 158.906V194.317H127.519V158.906H125.584ZM173.864 158.906V194.317H175.797V158.906H173.864ZM177.258 158.904V175.297H200.197V158.904H198.264V173.458H179.194V158.904H177.258ZM198.264 178.606V194.317H200.197V176.716H177.258V194.317H179.194V178.606H198.264ZM201.662 158.906V194.317H203.595V158.906H201.662ZM255.008 188.906C251.768 192.844 247.64 194.999 241.834 194.999C230.706 194.999 225.533 185.963 225.533 176.657C225.533 167.254 230.706 158.216 241.834 158.216C247.95 158.216 252.127 160.58 255.008 164.363L253.602 165.629C250.154 161.637 247.268 160.114 241.844 160.114C232.074 160.114 227.529 168.205 227.529 176.673C227.529 185.026 232.178 193.117 241.95 193.117C246.599 193.117 250.154 191.647 253.605 187.655L255.008 188.906ZM252.5 186.697C249.259 190.638 246.166 191.792 242.049 191.792C233.323 191.792 229.143 184.226 229.143 176.609C229.143 169.043 233.113 161.423 241.945 161.423C246.283 161.423 249.52 162.738 252.5 166.572L250.98 167.937C248.836 164.944 245.857 163.316 241.94 163.316C234.469 163.316 231.124 169.988 231.124 176.609C231.124 183.23 234.469 189.899 241.94 189.899C245.649 189.899 248.314 188.745 250.98 185.276L252.5 186.697ZM264.828 158.906V194.317H288.147V192.424H266.776V158.906H264.828ZM268.225 158.904V191.064H288.147V189.168H270.159V158.904H268.225ZM320.632 158.904H322.568V182.231C322.568 190.271 316.505 195 307.676 195C299.105 195 292.837 190.218 292.837 182.231V158.904H294.77V182.231C294.77 188.906 300.255 193.107 307.676 193.107C315.355 193.107 320.632 188.957 320.632 182.231V158.904ZM317.237 158.904H319.17V181.969C319.17 187.958 314.625 191.795 307.676 191.795C300.934 191.795 296.232 187.749 296.232 181.915V158.904H298.165V181.915C298.165 186.593 302.137 189.902 307.622 189.902C313.265 189.902 317.25 186.751 317.25 181.969L317.237 158.904ZM334.06 158.906V194.317L348.273 194.332C354.855 194.332 360.5 191.232 360.5 183.981C360.5 179.462 358.2 176.848 355.116 175.575C357.313 174.105 358.721 171.738 358.721 168.587C358.721 161.849 353.497 158.906 348.534 158.906H334.06ZM358.564 183.966C358.564 189.851 353.758 192.424 348.273 192.424H335.993V160.796H348.534C352.504 160.796 356.788 163.222 356.788 168.571C356.788 172.408 354.594 175.297 351.093 175.926C355.223 176.138 358.564 179.238 358.564 183.966ZM337.462 162.111V175.401L348.02 175.406C352.355 175.406 355.281 173.142 355.281 168.783C355.281 164.58 352.512 162.111 348.07 162.111H337.462ZM337.462 176.611V191.112H347.913C354.019 191.112 357.059 188.957 357.059 183.808C357.059 178.869 353.297 176.611 347.652 176.611H337.462ZM353.34 168.783C353.34 171.934 351.207 173.511 348.02 173.511H339.39V163.894H348.063C351.313 163.894 353.34 165.726 353.34 168.783ZM355.124 183.808C355.124 187.591 352.773 189.324 347.913 189.324H339.398V178.397H347.652C352.355 178.397 355.124 180.183 355.124 183.808Z" fill="#4360E6"/>
</g>
<defs>
<clipPath id="clip0_1585_12808">
<rect width="360" height="195" fill="white" transform="translate(0.5)"/>
</clipPath>
</defs>
</svg>
